# xmcd
#
# Track frame offsets:
#	150
#	13662
#	27422
#	43895
#	58483
#	72133
#	85775
#	99490
#	113252
#	127217
#	141407
#	155792
#	173043
#	187004
#
# Disc length: 2673 seconds
#
# Revision: 1
# Processed by: cddbd v1.5.2PL0 Copyright (c) Steve Scherf et al.
# Submitted via: audiograbber 1.83.01
#
DISCID=ca0a6f0e
DTITLE=Susi Sanders - Ich hätte ja gesagt
DYEAR=2015
DGENRE=Pop
TTITLE0=Immer wenn die Kerzen brennen
TTITLE1=Ich hätte ja gesagt
TTITLE2=Ich will bei dir sein
TTITLE3=Bald beginnt ein neuer Morgen
TTITLE4=Küss mich, Baby
TTITLE5=In den Himmel und zurück
TTITLE6=Sommersonnenträume
TTITLE7=Ich bin frei
TTITLE8=Wie lange dauert ewig
TTITLE9=Gib mir eine Chance
TTITLE10=Irgendwann fängt jeder Traum zu Leben an
TTITLE11=La Paloma
TTITLE12=Ein bisschen atemlos
TTITLE13=Bella Donna Maria
EXTD=
EXTT0=
EXTT1=
EXTT2=
EXTT3=
EXTT4=
EXTT5=
EXTT6=
EXTT7=
EXTT8=
EXTT9=
EXTT10=
EXTT11=
EXTT12=
EXTT13=
PLAYORDER=
